<?xml version="1.0" encoding="utf-8"?>
<!-- Generator: Adobe Illustrator 28.0.0, SVG Export Plug-In . SVG Version: 6.00 Build 0)  -->
<svg version="1.1" id="Layer_1" xmlns="http://www.w3.org/2000/svg" xmlns:xlink="http://www.w3.org/1999/xlink" x="0px" y="0px"
	 viewBox="0 0 1080 1080" style="enable-background:new 0 0 1080 1080;" xml:space="preserve">
<style type="text/css">
	.st0{fill:#FFFFFF;}
</style>
<g>
	<path class="st0" d="M450.33,121.71c-1.86,13.09-3.72,26.19-5.59,39.28c-5.19,36.34,1.06,71.15,15.02,104.64
		c12.17,29.21,36.73,47.17,60.97,65.63c40.44,30.8,87.2,43.38,136.35,50.83c23.13,3.51,45.8,9.97,68.75,14.72
		c36.4,7.54,61.57,29.25,80.35,60.48c35.68,59.35,44.36,122.15,28.02,189.23c-14.12,57.93-38.26,111.83-66.06,163.99
		c-43.25,81.13-96.23,155.66-159.4,222.73c-6.18,6.56-12.32,13.32-19.42,18.78c-4.08,3.14-10.03,3.85-15.15,5.66
		c-0.75-5.11-2.62-10.36-2.03-15.31c1.92-16.09,5.28-32.01,7.14-48.11c9.34-81.14-18.7-149.16-76.34-204.86
		c-16.48-15.93-38.16-27.09-58.72-38.1c-42.85-22.95-83.08-49.29-118.75-82.42C285.34,631.64,264.3,583.8,250,532.47
		c-20.98-75.34-13.82-149.23,14.24-221.4c13.88-35.7,36.66-66.33,61.74-94.68c20.22-22.85,42.42-44.32,65.92-63.77
		c16.59-13.73,36.83-23.04,55.45-34.33C448.34,119.43,449.33,120.57,450.33,121.71z"/>
	<path class="st0" d="M663.61,357.97c-62.65-0.98-112.69-21.4-152.65-65.36c-20.36-22.4-38.76-46.03-45.24-76.26
		c-11.68-54.43-0.88-106.84,52.22-143.38c13.08-9,17.89-7.16,19.76,8.17c6.08,49.84,36.74,74.13,84.78,79.83
		c23.24,2.76,46.53,5.32,69.86,7.12c58.81,4.53,109.41,85.93,67.46,150.98c-13.72,21.28-36.12,30.38-60.24,34.67
		C686.49,356.08,673.15,356.89,663.61,357.97z"/>
	<path class="st0" d="M623.45,22.31c32.52,1.51,55.33,7.38,75.67,21.03c17.74,11.9,27.94,28.38,26.15,50.1
		c-1.95,23.67-13.48,41.06-36.12,50.9c-44.06,19.14-97.24,7.02-127.1-28.87c-18.29-21.99-19.29-67.32,18.29-81.24
		C596.7,28.16,614.08,24.84,623.45,22.31z"/>
</g>
</svg>
